<svg width="88" height="116" viewBox="0 0 88 116" fill="none" xmlns="http://www.w3.org/2000/svg">
<path d="M49.5822 40.967H79.603L49.5822 9.34198V40.967ZM11.3738 0.71698H55.0405L87.7905 35.217V104.217C87.7905 107.267 86.6403 110.192 84.5931 112.349C82.5458 114.505 79.7691 115.717 76.8738 115.717H11.3738C5.31507 115.717 0.457153 110.542 0.457153 104.217V12.217C0.457153 5.83448 5.31507 0.71698 11.3738 0.71698ZM11.3738 104.217H60.4988H76.8738V58.217L55.0405 81.217L44.1238 69.717L11.3738 104.217ZM22.2905 40.967C19.3952 40.967 16.6185 42.1786 14.5712 44.3353C12.524 46.4919 11.3738 49.417 11.3738 52.467C11.3738 55.517 12.524 58.442 14.5712 60.5987C16.6185 62.7554 19.3952 63.967 22.2905 63.967C25.1858 63.967 27.9625 62.7554 30.0097 60.5987C32.057 58.442 33.2072 55.517 33.2072 52.467C33.2072 49.417 32.057 46.4919 30.0097 44.3353C27.9625 42.1786 25.1858 40.967 22.2905 40.967Z" fill="black"/>
</svg>
